<svg id="Layer_1" data-name="Layer 1" xmlns="http://www.w3.org/2000/svg" viewBox="0 0 1809.94 968.14"><defs><style>.cls-1,.cls-11,.cls-2,.cls-21,.cls-22,.cls-58,.cls-70,.cls-77{fill:#102535;}.cls-11,.cls-13,.cls-16,.cls-18,.cls-19,.cls-2,.cls-21,.cls-25,.cls-28,.cls-30,.cls-4{font-size:22.18px;}.cls-11,.cls-13,.cls-16,.cls-18,.cls-19,.cls-2,.cls-21,.cls-25,.cls-28,.cls-30,.cls-33,.cls-4,.cls-40,.cls-46,.cls-52,.cls-58,.cls-70,.cls-77,.cls-92{font-family:Overpass-Heavy, Overpass;font-weight:800;}.cls-2,.cls-28,.cls-7{letter-spacing:0.2em;}.cls-13,.cls-16,.cls-18,.cls-19,.cls-20,.cls-3,.cls-4,.cls-46,.cls-52{fill:#ff812c;}.cls-15,.cls-4{letter-spacing:0.2em;}.cls-5{letter-spacing:0.22em;}.cls-6{letter-spacing:0.2em;}.cls-8{letter-spacing:0.1em;}.cls-9{letter-spacing:0.16em;}.cls-10,.cls-11,.cls-30{letter-spacing:0.2em;}.cls-12{letter-spacing:0.18em;}.cls-13{letter-spacing:0.12em;}.cls-14{letter-spacing:0.13em;}.cls-16{letter-spacing:0.18em;}.cls-17{letter-spacing:0.09em;}.cls-18{letter-spacing:0.18em;}.cls-19,.cls-21,.cls-25{letter-spacing:0.19em;}.cls-20,.cls-22,.cls-27{font-size:25.26px;font-family:Chalkboard-Bold, Chalkboard;font-weight:700;}.cls-20{letter-spacing:-0.05em;}.cls-22,.cls-27{letter-spacing:-0.05em;}.cls-23{letter-spacing:0.17em;}.cls-24{letter-spacing:0.1em;}.cls-25,.cls-26,.cls-27,.cls-28,.cls-30,.cls-33,.cls-40{fill:#af59e2;}.cls-29{letter-spacing:0.19em;}.cls-31{letter-spacing:0.19em;}.cls-32{letter-spacing:0.16em;}.cls-33,.cls-40{font-size:17.6px;}.cls-33{letter-spacing:0.2em;}.cls-34{letter-spacing:0.17em;}.cls-35{letter-spacing:0.18em;}.cls-36{letter-spacing:0.19em;}.cls-37{letter-spacing:0.17em;}.cls-38{letter-spacing:0.17em;}.cls-39,.cls-40{letter-spacing:0.2em;}.cls-41{letter-spacing:0.23em;}.cls-42{letter-spacing:0.17em;}.cls-43{letter-spacing:0.19em;}.cls-44{letter-spacing:0.2em;}.cls-45{letter-spacing:0.09em;}.cls-46,.cls-52{font-size:11.07px;}.cls-46{letter-spacing:0.17em;}.cls-47{letter-spacing:0.2em;}.cls-48{letter-spacing:0.17em;}.cls-49{letter-spacing:0.17em;}.cls-50{letter-spacing:0.2em;}.cls-51{letter-spacing:0.18em;}.cls-52{letter-spacing:0.12em;}.cls-53{letter-spacing:0.16em;}.cls-54{letter-spacing:0.2em;}.cls-55{letter-spacing:0.12em;}.cls-56{letter-spacing:0.16em;}.cls-57{letter-spacing:0.19em;}.cls-58,.cls-70{font-size:13.38px;}.cls-58,.cls-64{letter-spacing:0.2em;}.cls-59{letter-spacing:0.19em;}.cls-60{letter-spacing:0.2em;}.cls-61{letter-spacing:0.12em;}.cls-62{letter-spacing:0.16em;}.cls-63{letter-spacing:0.2em;}.cls-65,.cls-70{letter-spacing:0.19em;}.cls-66{letter-spacing:0.19em;}.cls-67{letter-spacing:0.13em;}.cls-68{letter-spacing:0.16em;}.cls-69{letter-spacing:0.19em;}.cls-71{letter-spacing:0.17em;}.cls-72{letter-spacing:0.1em;}.cls-73{letter-spacing:0.18em;}.cls-74{letter-spacing:0.17em;}.cls-75{letter-spacing:0.19em;}.cls-76{letter-spacing:0.23em;}.cls-77{font-size:35.4px;letter-spacing:0.2em;}.cls-78{letter-spacing:0.2em;}.cls-79{letter-spacing:0.16em;}.cls-80{letter-spacing:0.18em;}.cls-81{letter-spacing:0.09em;}.cls-82{letter-spacing:0.16em;}.cls-83{letter-spacing:0.2em;}.cls-84,.cls-85,.cls-86,.cls-87,.cls-88,.cls-90,.cls-91{fill:none;}.cls-84,.cls-88{stroke:#102535;}.cls-84,.cls-85,.cls-86,.cls-87,.cls-88,.cls-90{stroke-linecap:round;stroke-linejoin:round;stroke-width:5px;}.cls-85,.cls-86,.cls-87{stroke:#af59e2;}.cls-85,.cls-88{stroke-dasharray:8 20;}.cls-87{stroke-dasharray:8.07 20.16;}.cls-89{letter-spacing:0.18em;}.cls-90{stroke:#ff812c;}.cls-91{stroke:#c6c6c6;stroke-miterlimit:10;stroke-width:10px;}.cls-92{font-size:40.37px;fill:#c6c6c6;letter-spacing:0.2em;}.cls-93{letter-spacing:0.16em;}.cls-94{letter-spacing:0.16em;}.cls-95{letter-spacing:0.17em;}</style></defs><path class="cls-1" d="M364.73,216.17a46.07,46.07,0,0,0-14.57,89.77c2.31.41,3.17-1,3.17-2.18s-.06-4.73-.06-8.58c-11.57,2.13-14.57-2.82-15.49-5.42a16.66,16.66,0,0,0-4.72-6.5c-1.61-.87-3.91-3-.06-3.05a9.21,9.21,0,0,1,7.09,4.72,9.84,9.84,0,0,0,13.39,3.81h0a9.72,9.72,0,0,1,2.94-6.16c-10.25-1.16-21-5.13-21-22.75a17.93,17.93,0,0,1,4.72-12.38,16.58,16.58,0,0,1,.46-12.21s3.86-1.21,12.67,4.73a43.28,43.28,0,0,1,23,0c8.81-6,12.67-4.73,12.67-4.73a16.53,16.53,0,0,1,.46,12.21,17.79,17.79,0,0,1,4.72,12.38c0,17.68-10.76,21.59-21,22.75a10.91,10.91,0,0,1,3.11,8.52c0,6.16-.06,11.11-.06,12.67,0,1.21.86,2.65,3.17,2.18a46.09,46.09,0,0,0-14.69-89.77Z" transform="translate(-46.27 -51.88)"/><text class="cls-2" transform="translate(265.57 294.9)">GITHUB</text><g id="JCkTEQ.tif"><path class="cls-3" d="M1556.61,276.37v1.56a5,5,0,0,1-1.81,2.35q-20.91,15.15-41.78,30.35a1,1,0,0,1-1.41,0q-20.94-15.24-41.91-30.46a3.43,3.43,0,0,1-1.42-4.44l12.09-37.22c.83-2.57,1.67-5.14,2.5-7.72a1.66,1.66,0,0,1,1.62-1.32,1.61,1.61,0,0,1,1.69,1.32c0,.13.1.27.14.4q4.7,14.42,9.37,28.84c.19.59.42.87,1.12.87q15.5,0,31,0a1,1,0,0,0,1.09-.79q3.19-9.94,6.44-19.89,1.5-4.59,3-9.2c.35-1.06.9-1.55,1.72-1.56s1.37.48,1.73,1.53a2.5,2.5,0,0,0,.09.25q6.44,19.83,12.89,39.67C1555.33,272.76,1556,274.56,1556.61,276.37Z" transform="translate(-46.27 -51.88)"/></g><text class="cls-4" transform="translate(1415.1 294.9)">GIT<tspan class="cls-5" x="48.55" y="0">L</tspan><tspan class="cls-6" x="65.39" y="0">A</tspan><tspan class="cls-7" x="86.22" y="0">B</tspan></text><path class="cls-1" d="M358.51,725.23a3.09,3.09,0,1,0,3.08,3.08A3.08,3.08,0,0,0,358.51,725.23Zm-12.33,0a3.09,3.09,0,1,0,3.08,3.08A3.08,3.08,0,0,0,346.18,725.23Zm24.66,0a3.09,3.09,0,1,0,3.09,3.08A3.08,3.08,0,0,0,370.84,725.23Zm18.5-12.33H340a9.25,9.25,0,0,0-9.25,9.25v49.32a9.25,9.25,0,0,0,9.25,9.25h49.32a9.25,9.25,0,0,0,9.25-9.25V722.15A9.25,9.25,0,0,0,389.34,712.9Zm3.08,58.57a3.08,3.08,0,0,1-3.08,3.08H340a3.08,3.08,0,0,1-3.09-3.08V743.73h55.49Zm0-33.91H336.93V722.15a3.08,3.08,0,0,1,3.09-3.08h49.32a3.08,3.08,0,0,1,3.08,3.08Z" transform="translate(-46.27 -51.88)"/><text class="cls-2" transform="translate(263.35 759.11)">GITHUB<tspan class="cls-8"><tspan x="8.76" y="26.62">P</tspan><tspan class="cls-9" x="25.26" y="26.62">A</tspan><tspan class="cls-10" x="45.36" y="26.62">GES</tspan></tspan></text><text class="cls-11" transform="translate(19.32 441.61)">OPEN<tspan class="cls-7"><tspan x="-18.91" y="26.62">SOU</tspan><tspan class="cls-12" x="40.25" y="26.62">R</tspan><tspan class="cls-10" x="59.99" y="26.62">CE</tspan></tspan></text><path class="cls-3" d="M1506.22,874.22a3.09,3.09,0,1,0,3.08,3.08A3.08,3.08,0,0,0,1506.22,874.22Zm-12.33,0a3.09,3.09,0,1,0,3.08,3.08A3.08,3.08,0,0,0,1493.89,874.22Zm24.66,0a3.09,3.09,0,1,0,3.08,3.08A3.08,3.08,0,0,0,1518.55,874.22ZM1537,861.89h-49.32a9.25,9.25,0,0,0-9.25,9.25v49.32a9.25,9.25,0,0,0,9.25,9.25H1537a9.25,9.25,0,0,0,9.25-9.25V871.14A9.25,9.25,0,0,0,1537,861.89Zm3.09,58.57a3.08,3.08,0,0,1-3.09,3.08h-49.32a3.08,3.08,0,0,1-3.08-3.08V892.72h55.49Zm0-33.91h-55.49V871.14a3.08,3.08,0,0,1,3.08-3.08H1537a3.08,3.08,0,0,1,3.09,3.08Z" transform="translate(-46.27 -51.88)"/><text class="cls-13" transform="translate(1409.14 911.61)">L<tspan class="cls-7" x="14.66" y="0">TI-</tspan><tspan class="cls-6" x="58" y="0">A</tspan><tspan class="cls-14" x="78.83" y="0">D</tspan><tspan class="cls-15" x="97.88" y="0">X</tspan></text><text class="cls-16" transform="translate(1349.22 720.22)">B<tspan class="cls-17" x="19.76" y="0">A</tspan><tspan class="cls-7" x="38.26" y="0">TS</tspan></text><path class="cls-3" d="M1416.53,680.46a3.39,3.39,0,1,0-3.39-3.39A3.39,3.39,0,0,0,1416.53,680.46Zm44.08,44.08h-21a10.17,10.17,0,0,0-6.17-6.17V711H1447a10.17,10.17,0,0,0,10.18-10.17V694a10.22,10.22,0,0,0-2.65-6.79,10.17,10.17,0,0,0,2.65-6.78v-6.78A10.17,10.17,0,0,0,1447,663.51h-33.9A10.17,10.17,0,0,0,1403,673.68v6.78a10.17,10.17,0,0,0,2.65,6.78A10.22,10.22,0,0,0,1403,694v6.78A10.17,10.17,0,0,0,1413.14,711h13.56v7.39a10.17,10.17,0,0,0-6.17,6.17h-21a3.4,3.4,0,0,0,0,6.79h21a10.17,10.17,0,0,0,19.12,0h21a3.4,3.4,0,0,0,0-6.79Zm-50.87-50.86a3.4,3.4,0,0,1,3.4-3.39H1447a3.4,3.4,0,0,1,3.4,3.39v6.78a3.4,3.4,0,0,1-3.4,3.39h-33.9a3.4,3.4,0,0,1-3.4-3.39Zm3.4,30.52a3.4,3.4,0,0,1-3.4-3.39V694a3.4,3.4,0,0,1,3.4-3.4H1447a3.4,3.4,0,0,1,3.4,3.4v6.78a3.4,3.4,0,0,1-3.4,3.39Zm16.95,27.13a3.4,3.4,0,1,1,3.39-3.4A3.4,3.4,0,0,1,1430.09,731.33ZM1416.53,694a3.39,3.39,0,1,0,3.39,3.39A3.38,3.38,0,0,0,1416.53,694Z" transform="translate(-46.27 -51.88)"/><text class="cls-18" transform="translate(1520.64 720.22)">W<tspan class="cls-7" x="22.91" y="0">ILD</tspan></text><path class="cls-3" d="M1586.31,680.46a3.39,3.39,0,1,0-3.39-3.39A3.39,3.39,0,0,0,1586.31,680.46Zm44.08,44.08h-21a10.17,10.17,0,0,0-6.17-6.17V711h13.57A10.17,10.17,0,0,0,1627,700.81V694a10.22,10.22,0,0,0-2.65-6.79,10.17,10.17,0,0,0,2.65-6.78v-6.78a10.17,10.17,0,0,0-10.17-10.17h-33.91a10.17,10.17,0,0,0-10.18,10.17v6.78a10.17,10.17,0,0,0,2.65,6.78,10.22,10.22,0,0,0-2.65,6.79v6.78A10.17,10.17,0,0,0,1582.92,711h13.56v7.39a10.17,10.17,0,0,0-6.17,6.17h-21a3.4,3.4,0,0,0,0,6.79h21a10.17,10.17,0,0,0,19.12,0h21a3.4,3.4,0,0,0,0-6.79Zm-50.86-50.86a3.39,3.39,0,0,1,3.39-3.39h33.91a3.39,3.39,0,0,1,3.39,3.39v6.78a3.39,3.39,0,0,1-3.39,3.39h-33.91a3.39,3.39,0,0,1-3.39-3.39Zm3.39,30.52a3.39,3.39,0,0,1-3.39-3.39V694a3.39,3.39,0,0,1,3.39-3.4h33.91a3.4,3.4,0,0,1,3.39,3.4v6.78a3.39,3.39,0,0,1-3.39,3.39Zm16.95,27.13a3.4,3.4,0,1,1,3.39-3.4A3.4,3.4,0,0,1,1599.87,731.33ZM1586.31,694a3.39,3.39,0,1,0,3.39,3.39A3.38,3.38,0,0,0,1586.31,694Z" transform="translate(-46.27 -51.88)"/><text class="cls-19" transform="translate(1426.82 460.75)">C<tspan class="cls-7" x="18.23" y="0">ODE</tspan></text><path class="cls-3" d="M1532.78,427.35h-21.07l-1.07-3.35a10.06,10.06,0,0,0-9.53-6.71h-15.29a10.05,10.05,0,0,0-10.06,10.06V471A10.06,10.06,0,0,0,1485.82,481h47A10.06,10.06,0,0,0,1542.84,471V437.41A10.06,10.06,0,0,0,1532.78,427.35Zm3.35,43.61a3.35,3.35,0,0,1-3.35,3.35h-47a3.36,3.36,0,0,1-3.36-3.35V427.35a3.36,3.36,0,0,1,3.36-3.35h15.29a3.34,3.34,0,0,1,3.19,2.28l1.81,5.5a3.37,3.37,0,0,0,3.19,2.28h23.48a3.35,3.35,0,0,1,3.35,3.35Z" transform="translate(-46.27 -51.88)"/><text class="cls-20" transform="translate(1443.96 410.09)">&lt;/&gt;</text><text class="cls-21" transform="translate(279.98 473.52)">C<tspan class="cls-7" x="18.23" y="0">ODE</tspan></text><path class="cls-1" d="M385.94,440.12H364.87l-1.07-3.35a10.07,10.07,0,0,0-9.53-6.71H339a10.06,10.06,0,0,0-10.06,10.06v43.61A10.05,10.05,0,0,0,339,493.79h47A10.05,10.05,0,0,0,396,483.73V450.19A10.06,10.06,0,0,0,385.94,440.12Zm3.35,43.61a3.35,3.35,0,0,1-3.35,3.35H339a3.36,3.36,0,0,1-3.36-3.35V440.12a3.36,3.36,0,0,1,3.36-3.35h15.29a3.35,3.35,0,0,1,3.19,2.28l1.81,5.5a3.35,3.35,0,0,0,3.19,2.28h23.48a3.35,3.35,0,0,1,3.35,3.36Z" transform="translate(-46.27 -51.88)"/><text class="cls-22" transform="translate(297.12 422.86)">&lt;/&gt;</text><text class="cls-21" transform="translate(0 753.95)">C<tspan class="cls-6" x="18.23" y="0">A</tspan><tspan class="cls-23" x="39.06" y="0">N</tspan><tspan class="cls-24" x="58.91" y="0">V</tspan><tspan class="cls-23" x="76.61" y="0">A</tspan><tspan class="cls-7" x="96.87" y="0">S</tspan></text><path class="cls-1" d="M130.93,769.24l-2.72-10.49h0l-8.56-31.5a2.72,2.72,0,0,0-3.32-1.93L105.82,728a2.75,2.75,0,0,0-2-.9H76.66a2.72,2.72,0,0,0-2.72,2.72v43.48a2.72,2.72,0,0,0,2.72,2.72h27.17a2.72,2.72,0,0,0,2.72-2.72V751.6l6,22.34a3.34,3.34,0,0,0,3.42,2l13.13-3.5a2.74,2.74,0,0,0,1.66-1.28A2.92,2.92,0,0,0,130.93,769.24Zm-43.49,1.49H79.29V765.3h8.15Zm0-10.87H79.29v-16.3h8.15Zm0-21.74H79.29v-5.43h8.15ZM101,770.73H92.88V765.3H101Zm0-10.87H92.88v-16.3H101Zm0-21.74H92.88v-5.43H101Zm6.12-4.73,7.88-2.12,1.41,5.25-7.88,2.12Zm7,26.26L110,743.88l7.89-2.12,4.21,15.77Zm2.71,10.49-1.41-5.25,7.88-2.12,1.42,5.25Z" transform="translate(-46.27 -51.88)"/><text class="cls-25" transform="translate(818.69 480.23)">C<tspan class="cls-7" x="18.23" y="0">ODE</tspan></text><path class="cls-26" d="M924.65,446.83H903.58l-1.07-3.36a10.06,10.06,0,0,0-9.53-6.7H877.69a10.06,10.06,0,0,0-10.07,10.06v43.6a10.07,10.07,0,0,0,10.07,10.07h47a10.07,10.07,0,0,0,10.06-10.07V456.89A10.06,10.06,0,0,0,924.65,446.83Zm3.35,43.6a3.35,3.35,0,0,1-3.35,3.36h-47a3.35,3.35,0,0,1-3.36-3.36v-43.6a3.36,3.36,0,0,1,3.36-3.36H893a3.37,3.37,0,0,1,3.19,2.29l1.81,5.5a3.36,3.36,0,0,0,3.19,2.28h23.48a3.35,3.35,0,0,1,3.35,3.35Z" transform="translate(-46.27 -51.88)"/><text class="cls-27" transform="translate(835.83 429.57)">&lt;/&gt;</text><text class="cls-28" transform="translate(806.38 294.9)">GLI<tspan class="cls-29" x="46.89" y="0">T</tspan><tspan class="cls-10" x="64.68" y="0">CH</tspan></text><text class="cls-30" transform="translate(824.16 695.65)">JI<tspan class="cls-31" x="28.35" y="0">R</tspan><tspan class="cls-32" x="48.33" y="0">A</tspan></text><text class="cls-33" transform="translate(450.78 447.39)">LIN<tspan class="cls-34" x="38.33" y="0">K</tspan><tspan x="54.33" y="0">S + SOU</tspan><tspan class="cls-35" x="145.51" y="0">R</tspan><tspan x="161.17" y="0">CE </tspan><tspan class="cls-36" x="198.2" y="0">C</tspan><tspan x="212.67" y="0">ONT</tspan><tspan class="cls-35" x="259.44" y="0">R</tspan><tspan x="275.1" y="0">OLS</tspan><tspan x="49.27" y="21.12">NODE.JS SE</tspan><tspan class="cls-37" x="185.64" y="21.12">R</tspan><tspan class="cls-38" x="201.16" y="21.12">V</tspan><tspan class="cls-39" x="216.53" y="21.12">ICES</tspan></text><text class="cls-40" transform="translate(882.19 540.28)">TICKE<tspan class="cls-41" x="69.4" y="0">T</tspan><tspan class="cls-42"><tspan x="0" y="21.12">A</tspan><tspan class="cls-39" x="16.03" y="21.12">U</tspan><tspan class="cls-43" x="32.35" y="21.12">T</tspan><tspan class="cls-39" x="46.47" y="21.12">O</tspan><tspan class="cls-44" x="62.61" y="21.12">M</tspan><tspan class="cls-45" x="80.38" y="21.12">A</tspan><tspan class="cls-39" x="95.06" y="21.12">TION</tspan></tspan></text><text class="cls-46" transform="translate(1414.68 572.62)">P<tspan class="cls-47" x="9.07" y="0">YTHON + SQL</tspan><tspan class="cls-47"><tspan x="19.49" y="13.28">SE</tspan><tspan class="cls-48" x="37.91" y="13.28">R</tspan><tspan class="cls-49" x="47.67" y="13.28">V</tspan><tspan class="cls-50" x="57.33" y="13.28">E</tspan><tspan class="cls-51" x="66.64" y="13.28">R</tspan><tspan x="76.49" y="13.28">S</tspan></tspan></text><text class="cls-52" transform="translate(1412.15 748.08)">L<tspan class="cls-47" x="7.32" y="0">TI</tspan><tspan class="cls-53" x="22.03" y="0"> </tspan><tspan class="cls-54" x="26.34" y="0">AR</tspan><tspan class="cls-47" x="46.76" y="0">TE</tspan><tspan class="cls-55" x="65.1" y="0">F</tspan><tspan class="cls-56" x="72.87" y="0">A</tspan><tspan class="cls-57" x="82.9" y="0">C</tspan><tspan class="cls-47" x="92" y="0">TS</tspan></text><text class="cls-58" transform="translate(334.25 562.63)">P<tspan class="cls-59" x="11.29" y="0">E</tspan><tspan class="cls-60" x="22.37" y="0">OPLE-</tspan><tspan class="cls-61" x="75.46" y="0">F</tspan><tspan class="cls-62" x="84.85" y="0">A</tspan><tspan x="96.97" y="0">CING</tspan><tspan class="cls-63"><tspan x="0" y="16.05">AR</tspan><tspan class="cls-64" x="24.67" y="16.05">TE</tspan><tspan class="cls-61" x="46.84" y="16.05">F</tspan><tspan class="cls-62" x="56.23" y="16.05">A</tspan><tspan class="cls-65" x="68.35" y="16.05">C</tspan><tspan class="cls-64" x="79.35" y="16.05">TS DEP</tspan><tspan class="cls-66" x="142" y="16.05">L</tspan><tspan class="cls-67" x="151.71" y="16.05">O</tspan><tspan class="cls-68" x="163.07" y="16.05">Y</tspan></tspan><tspan class="cls-69"><tspan x="0" y="32.11">T</tspan><tspan class="cls-60" x="10.73" y="32.11">O</tspan></tspan></text><text class="cls-70" transform="translate(102.78 667.84)">C<tspan class="cls-63" x="11" y="0">A</tspan><tspan class="cls-71" x="23.56" y="0">N</tspan><tspan class="cls-72" x="35.53" y="0">V</tspan><tspan class="cls-71" x="46.21" y="0">A</tspan><tspan class="cls-60" x="58.43" y="0">S CSS</tspan><tspan class="cls-64"><tspan x="0" y="16.05">P</tspan><tspan class="cls-73" x="11.29" y="16.05">R</tspan><tspan class="cls-74" x="23.2" y="16.05">O</tspan><tspan class="cls-60" x="35.12" y="16.05">J</tspan><tspan class="cls-59" x="45.35" y="16.05">E</tspan><tspan class="cls-75" x="56.43" y="16.05">C</tspan><tspan class="cls-76" x="67.43" y="16.05">T</tspan><tspan class="cls-60" x="78.75" y="16.05" xml:space="preserve"> HOSTING</tspan></tspan></text><text class="cls-77" transform="translate(599.62 30.09)">MED<tspan class="cls-78" x="98.51" y="0">I</tspan><tspan class="cls-79" x="116.56" y="0">A</tspan><tspan x="148.49" y="0" xml:space="preserve"> HUB DE</tspan><tspan class="cls-80" x="339.82" y="0">V</tspan><tspan x="371.18" y="0">S</tspan><tspan class="cls-81" x="400.31" y="0">T</tspan><tspan class="cls-82" x="425.37" y="0">A</tspan><tspan class="cls-83" x="457.44" y="0">CK</tspan></text><path class="cls-26" d="M869.57,270.74c-2-2.55-2.19-4.23-.12-6.74,8.08-9.74,18.51-13.68,30.95-11.77a33.66,33.66,0,0,1,17.44,8.54,1.54,1.54,0,0,0,2.28.16,64.67,64.67,0,0,1,5.75-3.91,29.41,29.41,0,0,1,6-2.61c2-.56,2.94.74,2.2,2.64a17.5,17.5,0,0,1-1.66,3.29c-3,4.56-3.09,9.08-.14,13.7A16.94,16.94,0,0,1,934,277.5a2.76,2.76,0,0,1,0,2.17,2.63,2.63,0,0,1-2.14.44,11,11,0,0,1-3.33-1.19c-2.74-1.55-5.48-3.14-8.07-4.93-1.42-1-2.46-.9-3.61.22a10,10,0,0,1-.79.67c-6.17,5-13,8.17-21.13,8.06C884.59,282.78,876.07,278.86,869.57,270.74Zm11.25-7.35a2,2,0,0,0-2.16-1.93,2.17,2.17,0,0,0-1.95,2.2,2,2,0,0,0,2.18,1.91A2.05,2.05,0,0,0,880.82,263.39Z" transform="translate(-46.27 -51.88)"/><path class="cls-26" d="M869.57,294c-2-2.56-2.19-4.23-.12-6.74,8.08-9.75,18.51-13.68,30.95-11.77a33.66,33.66,0,0,1,17.44,8.54,1.54,1.54,0,0,0,2.28.15,64.56,64.56,0,0,1,5.75-3.9,28.87,28.87,0,0,1,6-2.61c2-.57,2.94.73,2.2,2.64a17.5,17.5,0,0,1-1.66,3.29c-3,4.55-3.09,9.08-.14,13.69a17,17,0,0,1,1.66,3.47,2.76,2.76,0,0,1,0,2.17,2.67,2.67,0,0,1-2.14.43,11.21,11.21,0,0,1-3.33-1.18c-2.74-1.56-5.48-3.14-8.07-4.93-1.42-1-2.46-.9-3.61.22-.25.24-.52.45-.79.67-6.17,5-13,8.17-21.13,8.06C884.59,306.05,876.07,302.14,869.57,294Zm11.25-7.36a2,2,0,0,0-2.16-1.93,2.18,2.18,0,0,0-1.95,2.2,2,2,0,0,0,2.18,1.92A2.06,2.06,0,0,0,880.82,286.66Z" transform="translate(-46.27 -51.88)"/><line class="cls-84" x1="318.47" y1="500.95" x2="318.47" y2="646.23"/><line class="cls-85" x1="856.11" y1="498.76" x2="856.11" y2="589.23"/><line class="cls-86" x1="379.92" y1="415.49" x2="383.92" y2="415.49"/><line class="cls-87" x1="404.09" y1="415.49" x2="789.22" y2="415.49"/><line class="cls-86" x1="799.31" y1="415.49" x2="803.31" y2="415.49"/><line class="cls-84" x1="126.42" y1="410.09" x2="262.36" y2="410.09"/><line class="cls-88" x1="126.42" y1="698.46" x2="262.36" y2="698.46"/><path class="cls-1" d="M110.49,440.35H97.67v-3.21a4.8,4.8,0,0,1,8.2-3.41,4.74,4.74,0,0,1,1.25,2.21,1.61,1.61,0,0,0,3.11-.8h0a8.11,8.11,0,0,0-2.1-3.67,8,8,0,0,0-13.67,5.67v3.21a4.8,4.8,0,0,0-4.8,4.8v11.22a4.81,4.81,0,0,0,4.8,4.81h16a4.82,4.82,0,0,0,4.81-4.81V445.15A4.81,4.81,0,0,0,110.49,440.35Zm1.6,16a1.6,1.6,0,0,1-1.6,1.6h-16a1.6,1.6,0,0,1-1.6-1.6V445.15a1.6,1.6,0,0,1,1.6-1.6h16a1.6,1.6,0,0,1,1.6,1.6Z" transform="translate(-46.27 -51.88)"/><text class="cls-4" transform="translate(1257.31 434.34)">C<tspan class="cls-89" x="18.48" y="0">L</tspan><tspan class="cls-7" x="34.58" y="0">OSED</tspan><tspan class="cls-7"><tspan x="-1.8" y="26.62">SOU</tspan><tspan class="cls-12" x="57.36" y="26.62">R</tspan><tspan x="77.1" y="26.62">CE</tspan></tspan></text><line class="cls-90" x1="1466.03" y1="481.98" x2="1466.03" y2="522.17"/><line class="cls-90" x1="1413.03" y1="400.94" x2="1372.85" y2="400.94"/><line class="cls-90" x1="1466.11" y1="764.47" x2="1466.11" y2="793.62"/><path class="cls-3" d="M1365.59,433.07h-12.82v-3.2a4.82,4.82,0,0,1,8.21-3.42,5,5,0,0,1,1.25,2.21,1.61,1.61,0,1,0,3.11-.8h0a8.25,8.25,0,0,0-2.1-3.67,8,8,0,0,0-13.67,5.68v3.2a4.81,4.81,0,0,0-4.81,4.81V449.1a4.8,4.8,0,0,0,4.81,4.8h16a4.8,4.8,0,0,0,4.81-4.8V437.88A4.81,4.81,0,0,0,1365.59,433.07Zm1.6,16a1.6,1.6,0,0,1-1.6,1.6h-16a1.6,1.6,0,0,1-1.6-1.6V437.88a1.59,1.59,0,0,1,1.6-1.6h16a1.59,1.59,0,0,1,1.6,1.6Zm-22.43-11.22V449.1a4.8,4.8,0,0,0,4.81,4.8h16a4.8,4.8,0,0,0,4.81-4.8V437.88a4.81,4.81,0,0,0-4.81-4.81v-3.2a8,8,0,0,0-13.67-5.68,8.25,8.25,0,0,0-2.1,3.67h0a1.61,1.61,0,1,0,3.11.8,5,5,0,0,1,1.25-2.21,4.82,4.82,0,0,1,8.21,3.42v3.2h-12.82A4.81,4.81,0,0,0,1344.76,437.88Zm3.21,0a1.59,1.59,0,0,1,1.6-1.6h16a1.59,1.59,0,0,1,1.6,1.6V449.1a1.6,1.6,0,0,1-1.6,1.6h-16a1.6,1.6,0,0,1-1.6-1.6Z" transform="translate(-46.27 -51.88)"/><path class="cls-26" d="M925.66,682.86l-16.79-21.54a8.9,8.9,0,0,0-12.58-.25l-.42.43-16.71,21.36a8.86,8.86,0,0,0-1.42,4.79,9,9,0,0,0,1.42,4.6l.18.2L896,714a8.74,8.74,0,0,0,6.39,2.74,8.92,8.92,0,0,0,6.57-2.91l16.68-21.36a8.7,8.7,0,0,0-.17-9.59Zm-4.56,6.22-16.48,21a3.21,3.21,0,0,1-4.12.2L884,689a2.85,2.85,0,0,1-.41-1.37,3.42,3.42,0,0,1,.29-1.3l16.48-21a3.23,3.23,0,0,1,4.13-.2l16.36,21.16a3,3,0,0,1,.47,1.57,3.12,3.12,0,0,1-.3,1.19Z" transform="translate(-46.27 -51.88)"/><path class="cls-90" d="M1599.87,653.67V587.75a11.58,11.58,0,0,0-11.58-11.58H1441.67a11.58,11.58,0,0,0-11.58,11.58v65.92" transform="translate(-46.27 -51.88)"/><path class="cls-90" d="M1430.09,783.57v21.2a11.58,11.58,0,0,0,11.58,11.58h146.62a11.58,11.58,0,0,0,11.58-11.58v-21.2" transform="translate(-46.27 -51.88)"/><rect class="cls-91" x="1108.8" y="68.74" width="696.14" height="894.41" rx="29.88"/><text class="cls-92" transform="translate(1168.52 132.44)">U<tspan class="cls-93" x="37.43" y="0">O</tspan><tspan class="cls-94" x="73" y="0">A </tspan><tspan class="cls-95" x="125.16" y="0">V</tspan><tspan x="160.41" y="0">PN</tspan></text></svg>